<svg width="24" height="21" viewBox="0 0 24 21" fill="none" xmlns="http://www.w3.org/2000/svg">
<path d="M22.5575 8.60672C22.4593 8.59079 22.3599 8.58344 22.2604 8.58472H5.32893L5.69812 8.413C6.059 8.2422 6.38731 8.00973 6.66833 7.72613L11.4164 2.97811C12.0417 2.38117 12.1468 1.42089 11.6653 0.702833C11.1051 -0.062335 10.0306 -0.228473 9.26537 0.331813C9.20355 0.377104 9.14479 0.426473 9.08957 0.479599L0.503632 9.06554C-0.167358 9.73577 -0.167949 10.823 0.502291 11.494C0.50272 11.4944 0.503203 11.4949 0.503632 11.4954L9.08957 20.0813C9.7611 20.7509 10.8483 20.7494 11.518 20.0779C11.5707 20.0251 11.62 19.9688 11.6653 19.9096C12.1468 19.1915 12.0417 18.2312 11.4164 17.6343L6.67692 12.8777C6.42498 12.6255 6.13531 12.414 5.81833 12.2509L5.30317 12.0191H22.1659C23.0432 12.0517 23.8128 11.4389 23.9776 10.5767C24.1294 9.64052 23.4936 8.75859 22.5575 8.60672Z" fill="black"/>
</svg>
