<svg width="26" height="27" viewBox="0 0 26 27" fill="none" xmlns="http://www.w3.org/2000/svg">
<path d="M12.7904 0C12.3157 0 2.0802 0.0294803 0.334724 2.32832C0.234207 2.37929 0.149743 2.45707 0.0906709 2.55305C0.0315984 2.64903 0.000218266 2.75947 0 2.87217C0 3.01497 0.0282519 3.15101 0.0810706 3.2809V7.87122C0.0810706 10.8699 12.2711 10.9043 12.7904 10.9043C13.3091 10.9043 25.4998 10.8699 25.4998 7.87122V3.03309C25.4998 0.0347004 13.3091 0 12.7904 0ZM12.7904 1.22834C19.3974 1.22834 23.3787 2.23835 24.1514 2.91148C23.6256 3.58093 19.5908 4.67692 12.7097 4.67692C6.1021 4.67692 2.12104 3.6666 1.34841 2.99378C1.87445 2.32433 5.90925 1.22834 12.7904 1.22834ZM24.2714 7.84942C23.9539 8.51088 19.8847 9.67566 12.7904 9.67566C5.69613 9.67566 1.62694 8.51088 1.30941 7.84942V4.35724C4.47148 5.88346 12.296 5.90526 12.7097 5.90526C13.1304 5.90526 21.2245 5.88254 24.2711 4.27525L24.2714 7.84942Z" fill="url(#paint0_linear_37_1636)"/>
<path d="M24.8859 9.83809C24.7269 9.83814 24.5742 9.89983 24.4598 10.0102C24.3453 10.1205 24.2782 10.271 24.2724 10.4298C23.9579 11.091 19.8884 12.257 12.7907 12.257C5.69305 12.257 1.62385 11.0913 1.30909 10.4298C1.30203 10.2699 1.23277 10.1189 1.11605 10.0093C0.999342 9.89964 0.844417 9.83991 0.684301 9.84283C0.524186 9.84576 0.371545 9.9111 0.258914 10.0249C0.146283 10.1388 0.0825715 10.2921 0.0813599 10.4523V15.7741C0.0813599 18.7727 12.2714 18.8071 12.7907 18.8071C13.3094 18.8071 25.5001 18.7727 25.5001 15.7741V10.4523C25.5001 10.2894 25.4354 10.1332 25.3202 10.018C25.205 9.90279 25.0488 9.83809 24.8859 9.83809ZM24.2717 15.7526C23.9542 16.414 19.8853 17.5788 12.7907 17.5788C5.69612 17.5788 1.62723 16.414 1.3097 15.7526V11.8974C4.4171 13.4629 12.3734 13.4853 12.7907 13.4853C13.2081 13.4853 21.1643 13.4629 24.2717 11.8974V15.7526Z" fill="url(#paint1_linear_37_1636)"/>
<path d="M24.8859 17.8201C24.7269 17.8202 24.5742 17.8819 24.4598 17.9922C24.3453 18.1026 24.2782 18.253 24.2724 18.4119C23.9579 19.073 19.8884 20.239 12.7907 20.239C5.69305 20.239 1.62385 19.0733 1.30909 18.4119C1.30203 18.2519 1.23277 18.101 1.11605 17.9913C0.999342 17.8817 0.844417 17.8219 0.684301 17.8249C0.524186 17.8278 0.371545 17.8931 0.258914 18.007C0.146283 18.1208 0.0825715 18.2742 0.0813599 18.4343V23.7561C0.0813599 26.7548 12.2714 26.7892 12.7907 26.7892C13.3094 26.7892 25.5001 26.7548 25.5001 23.7561V18.4343C25.5001 18.2714 25.4354 18.1152 25.3202 18C25.205 17.8848 25.0488 17.8201 24.8859 17.8201ZM24.2717 23.7343C23.9542 24.3957 19.885 25.5605 12.7907 25.5605C5.69642 25.5605 1.62723 24.3957 1.3097 23.7343V19.8794C4.4171 21.445 12.3734 21.4674 12.7907 21.4674C13.2081 21.4674 21.1643 21.445 24.2717 19.8794V23.7343Z" fill="url(#paint2_linear_37_1636)"/>
<defs>
<linearGradient id="paint0_linear_37_1636" x1="-1.49998" y1="14.45" x2="5.16237" y2="-5.85793" gradientUnits="userSpaceOnUse">
<stop stop-color="#00A9CE"/>
<stop offset="1" stop-color="#733CBD"/>
</linearGradient>
<linearGradient id="paint1_linear_37_1636" x1="-1.41386" y1="21.7235" x2="3.25261" y2="4.48524" gradientUnits="userSpaceOnUse">
<stop stop-color="#00A9CE"/>
<stop offset="1" stop-color="#733CBD"/>
</linearGradient>
<linearGradient id="paint2_linear_37_1636" x1="-1.41386" y1="29.7056" x2="3.25261" y2="12.4673" gradientUnits="userSpaceOnUse">
<stop stop-color="#00A9CE"/>
<stop offset="1" stop-color="#733CBD"/>
</linearGradient>
</defs>
</svg>
