<svg width="56" height="53" viewBox="0 0 56 53" fill="none" xmlns="http://www.w3.org/2000/svg">
<path d="M55.7099 26.5001L49.4032 19.4981L50.3907 10.1241L41.1687 8.1719L36.4646 0L27.855 3.84791L26.6929 26.5001L27.855 49.1521L36.4647 53L41.1687 44.8282L50.3907 42.8759L49.4032 33.5019L55.7099 26.5001Z" fill="url(#paint0_linear_37_1600)"/>
<path d="M19.2451 0L14.5411 8.1719L5.31916 10.1242L6.30661 19.4981L0 26.5001L6.30661 33.5019L5.31916 42.8759L14.5411 44.8282L19.2452 53L27.855 49.1521V3.84791L19.2451 0Z" fill="url(#paint1_linear_37_1600)"/>
<path d="M39.5331 20.4012L37.0949 18.2249L27.8557 28.576L26.6937 31.1484L27.8557 33.484L39.5331 20.4012Z" fill="#F7F0EB"/>
<path d="M18.1462 24.0391L15.8353 26.35L25.5512 36.0661L27.8559 33.484V28.576L25.4164 31.3091L18.1462 24.0391Z" fill="#FFFBF5"/>
<defs>
<linearGradient id="paint0_linear_37_1600" x1="41.2014" y1="2.84342e-07" x2="23.7747" y2="53.0492" gradientUnits="userSpaceOnUse">
<stop stop-color="#BD26B2"/>
<stop offset="1" stop-color="#7F38BB"/>
</linearGradient>
<linearGradient id="paint1_linear_37_1600" x1="13.9275" y1="0" x2="29.3782" y2="53.0492" gradientUnits="userSpaceOnUse">
<stop stop-color="#7E38BB"/>
<stop offset="1" stop-color="#C125B1"/>
</linearGradient>
</defs>
</svg>
